#!OML:ASF E:/inclinewalkrobotboard/Project1/Captureday1/Session1/subject1.ASF
:FULLY-SPECIFIED
:DEGREES
1
root 0 0 0 -2.4352074164943796 -5.627845186606557 -7.32715955448265
lowerback 9.205642717168601 2.5239472939800365 5.240914160835818
upperback -0.3049754633885149 4.055454701273252 1.526172852160688
thorax -5.381914305790257 1.889639515183374 -1.8743848479493046
lowerneck -15.109703125743575 -3.4202179985984955 -0.9644790694379508
upperneck 21.36372197925717 -4.901579429985209 1.4741002710590816
head 9.476527136648775 -2.189677972169501 0.048054766536556326
rclavicle -2.0997947612589247E-15 2.897291427563663E-15
rhumerus -30.357955125350788 -21.168744224726765 -81.75062094516714
rradius 24.90725781509751
rwrist 13.32796401507731
rhand -20.530689966898535 28.352125181129338
rfingers 7.125020000000005
rthumb 5.850696683654911 -1.8197829889517791
lclavicle -3.709854595577024E-15 1.5989515468833271E-15
lhumerus -32.20770091944935 5.121991031131048 83.2654973529529
lradius 18.093071226331286
lwrist -0.6421154685698611
lhand -26.7742194839729 26.141592391777362
lfingers 7.125020000000001
lthumb -0.2124540821791019 56.090118095926265
rfemur -5.669883643585326 5.49400794726981 25.70725427101044
rtibia 29.458625645617467
rfoot -10.550026636581364 -5.1492831293655925
rtoes 2.9325591872453
lfemur -15.492210289188417 -3.2840803133750045 -15.742927955375947
ltibia 31.55708375441392
lfoot -8.505601196777395 1.311819273154288
ltoes -13.126257798946598
2
root 0 0 0 -3.194390448644034 -5.603013000439221 -6.777342699519533
lowerback 9.066643451515429 2.4169900878019526 4.914271666078193
upperback -0.21124565236434284 3.8820396063314444 1.5027271360167134
thorax -5.208838258975194 1.8090443763826145 -1.6722390259630493
lowerneck -16.09301195856918 -3.4702116895549757 -1.172485357536665
upperneck 22.735341603749454 -4.978009266592012 1.3992795542360483
head 10.048879330645086 -2.2085188319728264 0.02009863065951223
rclavicle -2.606620430040717E-15 2.0386507969706017E-15
rhumerus -31.16804327331703 -22.046943378589418 -82.61454178893578
rradius 23.333159778297635
rwrist 15.4246424153609
rhand -20.64609583822368 28.448268971595056
rfingers 7.125019999999998
rthumb 5.744954071621136 -1.7559522525456472
lclavicle -4.679418442879826E-15 5.775203716244047E-16
lhumerus -33.56867099582482 6.919807111982522 82.17462187984695
lradius 16.365524016490543
lwrist -1.8376565183139273
lhand -26.672767547662588 26.630318590629546
lfingers 7.125019999999996
lthumb -0.13001844703630994 56.58856819938451
rfemur -5.53890647344036 4.150435132181191 22.73666915286521
rtibia 32.49815543976359
rfoot -6.336693653215251 -3.789208016463312
rtoes 4.937155019780703
lfemur -16.183756243658895 -1.9963166781884096 -18.012568794038856
ltibia 35.043942629616026
lfoot -3.817998856274098 -3.0693133382959714
ltoes -1.7904470287419443
3
root 0 0 0 -4.235214840585584 -5.689159571647061 -5.79605782890485
lowerback 8.848006959455384 2.152452587680815 4.182499395087174
upperback 0.22509845835690467 3.4519008871514876 1.5540458166561795
thorax -4.611584484563137 1.6153442931694786 -1.1098109639869151
lowerneck -16.671927812072777 -3.398805398538864 -1.3950673767090718
upperneck 25.5936513648455 -4.880814309581179 1.2990468305467546
head 11.035158283633324 -2.1341987538797165 -0.012250126925010207
rclavicle -2.3694781314962805E-15 1.8396574621944813E-15
rhumerus -31.64136467497775 -23.00054790358625 -82.90834316408949
rradius 21.99477845768409
rwrist 16.50204030457443
rhand -20.567441882829844 28.285841363156642
rfingers 7.125019999999994
rthumb 5.822981870702391 -1.914108896740231
lclavicle -4.382842710635939E-15 3.3726082524726503E-16
lhumerus -34.13359881366901 7.5255074873014 81.6293547530631
lradius 15.946282621460465
lwrist -2.056616635485233
lhand -26.71072007874568 26.912954440271626
lfingers 7.125019999999993
lthumb -0.17538109251663236 56.88946091381956
rfemur -7.598279409840251 2.9915753584636153 21.5220584583312
rtibia 39.933382194903686
rfoot -2.189903932628214 -3.08406328608721
rtoes 7.824598082646557
lfemur -16.924151421511276 -0.49326817063706896 -18.252334746849936
ltibia 37.943632574312375
lfoot -1.4023682809358622 -5.376489528818723
ltoes 0.024734663576378324
4
root 0 0 0 -5.044881721144484 -5.757804097826805 -4.804789906914708
lowerback 8.287442076973319 1.8034413074939206 3.2927840737552865
upperback 0.5895909270519174 2.8789559202652 1.5885751429158783
thorax -3.9055085433034398 1.3565693476824292 -0.45364478968822086
lowerneck -16.71530383368369 -3.126244104780708 -1.4295300370020643
upperneck 28.20834230599998 -4.534815797157831 1.2163921834595803
head 11.891045070400661 -1.9343797375632865 -0.030327138490048977
rclavicle -2.5372237089759063E-15 2.2214741591737165E-15
rhumerus -32.31712520533146 -23.207069143606905 -83.36092242070195
rradius 20.73899116696449
rwrist 16.731304667327578
rhand -20.32616624957577 28.100432411713143
rfingers 7.125019999999992
rthumb 6.055668473238864 -2.0762422015895083
lclavicle -4.5643617624396734E-15 6.148258024590864E-16
lhumerus -34.01053204036122 7.359848462630905 81.69939783442179
lradius 16.083210309839032
lwrist -1.8794595290272862
lhand -26.772958294211318 27.055075748901867
lfingers 7.125019999999996
lthumb -0.2306349895207811 57.03659549474031
rfemur -11.03514212142079 3.172874038235138 24.076549463020825
rtibia 47.12857564938619
rfoot -1.9556899711277675 -4.0024559887081566
rtoes 9.240698947553161
lfemur -17.42319494417792 0.6648310276030283 -18.023858185487814
ltibia 39.828152261796326
lfoot -0.3918624314885406 -6.490371230178541
ltoes -0.722421008866494
5
root 0 0 0 -5.401428420815339 -5.820696791847796 -4.243693875243128
lowerback 7.907116583633014 1.551170021735658 2.8249104851945814
upperback 0.7670585693991653 2.472676596736547 1.5756937664818875
thorax -3.5080160457385245 1.1684445288023242 -0.12913081647873925
lowerneck -16.721683015658712 -2.9003055834466895 -1.4748179757402107
upperneck 28.138490119362483 -4.198756133886811 1.1981288525958222
head 11.841547172977792 -1.777394751910109 0.004812747638002157
rclavicle -3.1636060997970632E-15 2.8039271873950952E-15
rhumerus -33.58963329906699 -22.257620952428944 -84.51300825861863
rradius 19.198831012836038
rwrist 16.419381309984093
rhand -19.951901477585302 28.099394512067597
rfingers 7.125019999999991
rthumb 6.416156177472019 -2.0463647913511167
lclavicle -5.337850113127911E-15 1.179279022027029E-15
lhumerus -33.459052836218426 6.797315173630864 82.01995232155276
lradius 16.48782496635762
lwrist -1.4925621715424628
lhand -26.8938939184212 27.152603075973673
lfingers 7.125020000000001
lthumb -0.338849019187335 57.131600171169936
rfemur -13.911180722401141 3.880498482574433 27.113524352540765
rtibia 50.85935520536934
rfoot -3.6476780595907194 -5.346207499554787
rtoes 9.222355999182628
lfemur -17.68370920898116 1.2022922726569218 -17.786995046786323
ltibia 40.36082716387844
lfoot -0.45074668983450294 -6.6101783677425505
ltoes -1.8764722780900343
6
root 0 0 0 -5.414705208836885 -5.886309798656084 -4.351972427798889
lowerback 7.387142790286842 1.5865812826362726 3.091215584426652
upperback 0.8715667883432499 2.5326621628892827 1.5649695136822965
thorax -3.0922542142320206 1.1936108484813426 -0.28537306829265396
lowerneck -16.613383507672285 -2.8424976738649232 -1.6621843540865928
upperneck 27.89460919104002 -4.126662646421292 1.4939800472155287
head 11.67874380373523 -1.7380883378178547 0.1435137920319341
rclavicle -3.8266883479459736E-15 2.8711970673755386E-15
rhumerus -34.97432017394297 -20.537418178554827 -85.98745323885694
rradius 17.642707767809995
rwrist 15.845452294903986
rhand -19.51093079152002 28.339153409225226
rfingers 7.125019999999991
rthumb 6.839233311648129 -1.7728995115374175
lclavicle -5.990190702589829E-15 1.394936789771559E-15
lhumerus -32.84893523573234 6.115737525138381 82.24679179001298
lradius 17.098934752381314
lwrist -0.9192553173169054
lhand -27.092957270411272 27.298400895715723
lfingers 7.125020000000005
lthumb -0.527144730501587 57.28286270029042
rfemur -14.8940682895852 4.4207227052214755 28.337709819150074
rtibia 50.058281273774625
rfoot -5.369347497489246 -6.147942927875147
rtoes 8.352597176013537
lfemur -17.715015482266306 1.3507508881403805 -17.62502704488945
ltibia 40.04666529285702
lfoot -1.073768765976018 -6.204413532658753
ltoes -3.0858974718017365
7
root 0 0 0 -5.172236096041579 -5.941077110403111 -4.827992303069197
lowerback 7.23042837434613 1.799639154920778 3.6662086926655
upperback 1.0788869672105132 2.8679771717710074 1.5395637148930144
thorax -2.763223272961599 1.3472553675694938 -0.6739288541336917
lowerneck -16.095314161447376 -2.922844070533935 -1.8245063442286367
upperneck 27.322352114294098 -4.265931028088771 1.937549093571359
head 11.350442062173286 -1.7954262491597648 0.31363290944313876
rclavicle -4.135590832768564E-15 2.2924605262363956E-15
rhumerus -36.07909979267434 -18.425357226266975 -87.3644783934729
rradius 16.486208946228025
rwrist 15.212754191143112
rhand -19.078118702302966 28.706660297417656
rfingers 7.125019999999991
rthumb 7.253124267624813 -1.373744301953984
lclavicle -6.203693672392734E-15 1.0423863432233198E-15
lhumerus -32.51809956207785 5.557092209610384 82.1969723981895
lradius 17.83228522952291
lwrist -0.23866820406008582
lhand -27.32132570716583 27.521962979574884
lfingers 7.1250200000000055
lthumb -0.7483601504648449 57.52617598861007
rfemur -14.900365183068821 4.925255932485394 28.959650333195476
rtibia 47.46851933403822
rfoot -7.150903858079074 -6.69746398757736
rtoes 7.155637640281917
lfemur -17.452891438366017 1.159021988276077 -17.5647016284756
ltibia 39.05356594218706
lfoot -2.101590953603422 -5.422431653358448
ltoes -4.2630523363625095
8
root 0 0 0 -4.394757652521369 -6.002228076928068 -5.6106473824468885
lowerback 8.117074354616951 2.1740146999471537 4.3394250746987355
upperback 1.5496035096104808 3.431355265989737 1.4860594051115958
thorax -2.733722278110839 1.6120299798900959 -1.1990712321229555
lowerneck -14.413538760629972 -3.174025105301434 -1.8419527611726676
upperneck 24.9218483991812 -4.614711594753889 2.5511129565044217
head 10.275256381003784 -1.973805694440407 0.5294606824595804
rclavicle -3.4870059564171075E-15 1.4618208805325564E-15
rhumerus -36.1798559670444 -15.628392464265485 -88.1009885947076
rradius 16.811339462970203
rwrist 14.311480524966377
rhand -18.7614826853931 29.438010464723966
rfingers 7.125019999999994
rthumb 7.552777255783091 -0.62189560421605
lclavicle -5.198422527799355E-15 4.726797810596729E-16
lhumerus -32.825038943277576 5.2794143029820235 81.44879838521217
lradius 18.90186728768623
lwrist 0.7063116912434815
lhand -27.61663827612444 27.938819554205615
lfingers 7.1250200000000055
lthumb -1.0399111234875047 57.98389322616532
rfemur -14.02376663123336 5.572823795955762 29.20251809870661
rtibia 42.179853139657695
rfoot -9.599851432553159 -7.215314875164392
rtoes 5.145206309568296
lfemur -16.254261692001037 0.09752177188768663 -17.75975011622598
ltibia 36.17879798828487
lfoot -4.455513751954021 -3.52736617862756
ltoes -5.67598209750323
